# xmcd CD database file
#
# Track frame offsets:
#	150
#	15401
#	33902
#	53330
#	76010
#	98034
#	115370
#	137220
#	156180
#	174418
#	200282
#	222729
#	244716
#
# Disc length: 3574 seconds
#
# Revision: 0
# Processed by: cddbd v1.5PL3 Copyright (c) Steve Scherf et al.
# Submitted via: CDex 1.50beta8
#
DISCID=a00df40d
DTITLE=Various Artist - HARLEM VER.1.7
DYEAR=2002
DGENRE=Hip-Hop
TTITLE0=Get Yo Shit Straight[FIRSTKLAS Remix]
TTITLE1=Feel The Same? OLD NICK ver. [SUPER HONEY DIP remix]
TTITLE2=APE SOMETHIN’[MURO Remix]
TTITLE3=SUPA M.C’S PT.2(L.W PT.3) [SKY HIGH MIX]
TTITLE4=Take Ya Time[Da Beatminerz Remix]
TTITLE5=真夜中の王国(NO DOUBT)[MIGHTY CROWN Remix]
TTITLE6=TOP DRUNKERS SHOW Part.1[FORCE OF NATURE Remix]
TTITLE7=RONIN FORE-[マン山田Remix]
TTITLE8=真夜中の王国(NO DOUBT)[A KID CALLED ROOTS Remix]
TTITLE9=FIRST AND LAST[String of Love MIX]
TTITLE10=PLAYING GAME[Kenny Dope Main Mix]
TTITLE11=EQUIS.EX.X PT.2 [D.O.I. Remix]
TTITLE12=PLAYING GAME[Kenny Dope Smooth Mix]
EXTD=YEAR: 2002
EXTT0=
EXTT1=
EXTT2=
EXTT3=
EXTT4=
EXTT5=
EXTT6=
EXTT7=
EXTT8=
EXTT9=
EXTT10=
EXTT11=
EXTT12=
PLAYORDER=
